# xmcd CD database file
#
# Track frame offsets:
#	150
#	13616
#	31950
#	48066
#	63026
#	79924
#	95276
#	121953
#	143145
#	157399
#	174214
#	193557
#	207283
#	224492
#
# Disc length: 3271 seconds
#
# Revision: 0
# Processed by: cddbd v1.4b41PL3 Copyright (c) Steve Scherf et al.
# Submitted via: CDex 1.40Beta5
#
DISCID=b90cc50e
DTITLE=The Imbayakunas - Sentimentos de Amor
DYEAR=1900
DGENRE=Native American
TTITLE0=Vuelo De Condores
TTITLE1=Chamo Candela
TTITLE2=Jaku Jmbayakunas
TTITLE3=Mi Gran Herida
TTITLE4=El Ultimo Amanecer
TTITLE5=Regresa A Mi
TTITLE6=Guantanamera
TTITLE7=Jaulun
TTITLE8=Mi Sueno Mejor
TTITLE9=Feelings of Love
TTITLE10=Desde Ja Distancia
TTITLE11=Nunca Tuve Suerte
TTITLE12=Destino Sin Final
TTITLE13=El Ultimo Adios
EXTD=ID3G:  64
EXTT0=
EXTT1=
EXTT2=
EXTT3=
EXTT4=
EXTT5=
EXTT6=
EXTT7=
EXTT8=
EXTT9=
EXTT10=
EXTT11=
EXTT12=
EXTT13=
PLAYORDER=
